<svg id="visual" viewBox="0 0 960 540" width="960" height="540" xmlns="http://www.w3.org/2000/svg" xmlns:xlink="http://www.w3.org/1999/xlink" version="1.1"><rect x="0" y="0" width="960" height="540" fill="#fbfbfb"></rect><path d="M0 385L7.7 379.5C15.3 374 30.7 363 45.8 353.7C61 344.3 76 336.7 91.2 342.3C106.3 348 121.7 367 137 374.5C152.3 382 167.7 378 183 369.2C198.3 360.3 213.7 346.7 228.8 344.5C244 342.3 259 351.7 274.2 350.2C289.3 348.7 304.7 336.3 320 335.5C335.3 334.7 350.7 345.3 365.8 353.3C381 361.3 396 366.7 411.2 370.3C426.3 374 441.7 376 457 371C472.3 366 487.7 354 503 355.5C518.3 357 533.7 372 548.8 377.3C564 382.7 579 378.3 594.2 377C609.3 375.7 624.7 377.3 640 373C655.3 368.7 670.7 358.3 685.8 359.3C701 360.3 716 372.7 731.2 378.3C746.3 384 761.7 383 777 379.8C792.3 376.7 807.7 371.3 823 364C838.3 356.7 853.7 347.3 868.8 346.7C884 346 899 354 914.2 357.2C929.3 360.3 944.7 358.7 952.3 357.8L960 357L960 541L952.3 541C944.7 541 929.3 541 914.2 541C899 541 884 541 868.8 541C853.7 541 838.3 541 823 541C807.7 541 792.3 541 777 541C761.7 541 746.3 541 731.2 541C716 541 701 541 685.8 541C670.7 541 655.3 541 640 541C624.7 541 609.3 541 594.2 541C579 541 564 541 548.8 541C533.7 541 518.3 541 503 541C487.7 541 472.3 541 457 541C441.7 541 426.3 541 411.2 541C396 541 381 541 365.8 541C350.7 541 335.3 541 320 541C304.7 541 289.3 541 274.2 541C259 541 244 541 228.8 541C213.7 541 198.3 541 183 541C167.7 541 152.3 541 137 541C121.7 541 106.3 541 91.2 541C76 541 61 541 45.8 541C30.7 541 15.3 541 7.7 541L0 541Z" fill="#dfccca"></path><path d="M0 394L7.7 395.5C15.3 397 30.7 400 45.8 403.2C61 406.3 76 409.7 91.2 416.5C106.3 423.3 121.7 433.7 137 435.8C152.3 438 167.7 432 183 431.7C198.3 431.3 213.7 436.7 228.8 434.3C244 432 259 422 274.2 415.8C289.3 409.7 304.7 407.3 320 408C335.3 408.7 350.7 412.3 365.8 414C381 415.7 396 415.3 411.2 412.7C426.3 410 441.7 405 457 408.7C472.3 412.3 487.7 424.7 503 422.8C518.3 421 533.7 405 548.8 397.8C564 390.7 579 392.3 594.2 394.8C609.3 397.3 624.7 400.7 640 404.5C655.3 408.3 670.7 412.7 685.8 409.7C701 406.7 716 396.3 731.2 393.7C746.3 391 761.7 396 777 400C792.3 404 807.7 407 823 404.3C838.3 401.7 853.7 393.3 868.8 391.8C884 390.3 899 395.7 914.2 398.3C929.3 401 944.7 401 952.3 401L960 401L960 541L952.3 541C944.7 541 929.3 541 914.2 541C899 541 884 541 868.8 541C853.7 541 838.3 541 823 541C807.7 541 792.3 541 777 541C761.7 541 746.3 541 731.2 541C716 541 701 541 685.8 541C670.7 541 655.3 541 640 541C624.7 541 609.3 541 594.2 541C579 541 564 541 548.8 541C533.7 541 518.3 541 503 541C487.7 541 472.3 541 457 541C441.7 541 426.3 541 411.2 541C396 541 381 541 365.8 541C350.7 541 335.3 541 320 541C304.7 541 289.3 541 274.2 541C259 541 244 541 228.8 541C213.7 541 198.3 541 183 541C167.7 541 152.3 541 137 541C121.7 541 106.3 541 91.2 541C76 541 61 541 45.8 541C30.7 541 15.3 541 7.7 541L0 541Z" fill="#d4b3af"></path><path d="M0 491L7.7 483.8C15.3 476.7 30.7 462.3 45.8 463C61 463.7 76 479.3 91.2 480.5C106.3 481.7 121.7 468.3 137 468.2C152.3 468 167.7 481 183 481.5C198.3 482 213.7 470 228.8 469.5C244 469 259 480 274.2 486.2C289.3 492.3 304.7 493.7 320 487.3C335.3 481 350.7 467 365.8 460.3C381 453.7 396 454.3 411.2 455.7C426.3 457 441.7 459 457 460.3C472.3 461.7 487.7 462.3 503 468C518.3 473.7 533.7 484.3 548.8 488.3C564 492.3 579 489.7 594.2 485.3C609.3 481 624.7 475 640 469.7C655.3 464.3 670.7 459.7 685.8 459C701 458.3 716 461.7 731.2 467.3C746.3 473 761.7 481 777 482.2C792.3 483.3 807.7 477.7 823 475.5C838.3 473.3 853.7 474.7 868.8 475C884 475.3 899 474.7 914.2 471.7C929.3 468.7 944.7 463.3 952.3 460.7L960 458L960 541L952.3 541C944.7 541 929.3 541 914.2 541C899 541 884 541 868.8 541C853.7 541 838.3 541 823 541C807.7 541 792.3 541 777 541C761.7 541 746.3 541 731.2 541C716 541 701 541 685.8 541C670.7 541 655.3 541 640 541C624.7 541 609.3 541 594.2 541C579 541 564 541 548.8 541C533.7 541 518.3 541 503 541C487.7 541 472.3 541 457 541C441.7 541 426.3 541 411.2 541C396 541 381 541 365.8 541C350.7 541 335.3 541 320 541C304.7 541 289.3 541 274.2 541C259 541 244 541 228.8 541C213.7 541 198.3 541 183 541C167.7 541 152.3 541 137 541C121.7 541 106.3 541 91.2 541C76 541 61 541 45.8 541C30.7 541 15.3 541 7.7 541L0 541Z" fill="#c99b95"></path></svg>