<svg width="639" height="166" viewBox="0 0 639 166" fill="none" xmlns="http://www.w3.org/2000/svg">
<rect x="33.5035" y="34.5036" width="99" height="99" stroke="#F8F8F8"/>
<rect x="35.5035" y="36.5036" width="95" height="95" stroke="#F8F8F8"/>
<rect x="37.5035" y="38.5036" width="91" height="91" stroke="#F8F8F8"/>
<rect x="13" y="84.0036" width="99" height="99" transform="rotate(-45 13 84.0036)" stroke="#F8F8F8"/>
<rect x="15.8284" y="84.0036" width="95" height="95" transform="rotate(-45 15.8284 84.0036)" stroke="#F8F8F8"/>
<rect x="18.6569" y="84.0036" width="91" height="91" transform="rotate(-45 18.6569 84.0036)" stroke="#F8F8F8"/>
<line x1="37.5" y1="59" x2="37.5" y2="109" stroke="#F8F8F8"/>
<line x1="33.5" y1="59" x2="33.5" y2="109" stroke="#F8F8F8"/>
<line x1="37.5" y1="59" x2="37.5" y2="109" stroke="#F8F8F8"/>
<line x1="35.5" y1="59" x2="35.5" y2="109" stroke="#F8F8F8"/>
<line x1="132.5" y1="59" x2="132.5" y2="109" stroke="#F8F8F8"/>
<line x1="128.5" y1="59" x2="128.5" y2="109" stroke="#F8F8F8"/>
<line x1="132.5" y1="59" x2="132.5" y2="109" stroke="#F8F8F8"/>
<line x1="130.5" y1="59" x2="130.5" y2="109" stroke="#F8F8F8"/>
<line x1="68" y1="34.5" x2="98" y2="34.5" stroke="#F8F8F8"/>
<line x1="64" y1="38.5" x2="102" y2="38.5" stroke="#F8F8F8"/>
<circle cx="70.5" cy="36.5" r="0.5" fill="#F8F8F8"/>
<circle cx="95.5" cy="36.5" r="0.5" fill="#F8F8F8"/>
<path d="M82.5 36.5C82.5 36.7761 82.2761 37 82 37C81.7239 37 81.5 36.7761 81.5 36.5C81.5 36.2238 81.7239 36 82 36C82.2761 36 82.5 36.2238 82.5 36.5Z" fill="#F8F8F8"/>
<circle cx="79.5" cy="36.5" r="0.5" fill="#F8F8F8"/>
<circle cx="86.5" cy="36.5" r="0.5" fill="#F8F8F8"/>
<circle cx="76.5" cy="36.5" r="0.5" fill="#F8F8F8"/>
<circle cx="89.5" cy="36.5" r="0.5" fill="#F8F8F8"/>
<circle cx="73.5" cy="36.5" r="0.5" fill="#F8F8F8"/>
<circle cx="92.5" cy="36.5" r="0.5" fill="#F8F8F8"/>
<path d="M85 36.5C85 36.7761 84.7761 37 84.5 37C84.2239 37 84 36.7761 84 36.5C84 36.2239 84.2239 36 84.5 36C84.7761 36 85 36.2239 85 36.5Z" fill="#F8F8F8"/>
<line x1="64" y1="129.5" x2="102" y2="129.5" stroke="#FBFBFB"/>
<line x1="68" y1="133.5" x2="98" y2="133.5" stroke="#FBFBFB"/>
<circle cx="70.5" cy="131.5" r="0.5" fill="#F8F8F8"/>
<circle cx="95.5" cy="131.5" r="0.5" fill="#F8F8F8"/>
<path d="M83.5 131.5C83.5 131.776 83.2761 132 83 132C82.7239 132 82.5 131.776 82.5 131.5C82.5 131.224 82.7239 131 83 131C83.2761 131 83.5 131.224 83.5 131.5Z" fill="#F8F8F8"/>
<circle cx="79.5" cy="131.5" r="0.5" fill="#F8F8F8"/>
<circle cx="86.5" cy="131.5" r="0.5" fill="#F8F8F8"/>
<circle cx="76.5" cy="131.5" r="0.5" fill="#F8F8F8"/>
<circle cx="89.5" cy="131.5" r="0.5" fill="#F8F8F8"/>
<circle cx="73.5" cy="131.5" r="0.5" fill="#F8F8F8"/>
<circle cx="92.5" cy="131.5" r="0.5" fill="#F8F8F8"/>
<path d="M73.3096 95.7246C73.3096 96.7207 73.376 97.5176 73.5088 98.1152C73.6416 98.6797 73.9238 99.1113 74.3555 99.4102C74.7871 99.709 75.3682 99.8916 76.0986 99.958C76.8623 100.024 77.875 100.058 79.1367 100.058C82.0254 100.058 84.3164 99.4102 86.0098 98.1152C87.7363 96.8203 88.5996 94.8447 88.5996 92.1885C88.5996 88.9678 87.5703 86.627 85.5117 85.166C83.4531 83.6719 80.7803 82.9248 77.4932 82.9248H73.3096V95.7246ZM73.3096 81.2812H76.2979C78.9209 81.2812 81.0957 80.6836 82.8223 79.4883C84.582 78.293 85.4619 76.168 85.4619 73.1133C85.4619 70.3242 84.6318 68.4482 82.9717 67.4854C81.3115 66.4893 79.1533 65.9912 76.4971 65.9912C76.165 65.9912 75.6504 66.0078 74.9531 66.041C74.2559 66.0742 73.708 66.0908 73.3096 66.0908V81.2812ZM65.1416 100.406C66.1377 100.406 66.9512 100.356 67.582 100.257C68.2129 100.124 68.6943 99.8916 69.0264 99.5596C69.3916 99.1943 69.6406 98.7129 69.7734 98.1152C69.9062 97.4844 69.9727 96.6709 69.9727 95.6748V70.0752C69.9727 68.3818 69.6572 67.2363 69.0264 66.6387C68.4287 66.041 67.1338 65.7256 65.1416 65.6924V64.4473C65.9385 64.4805 66.8682 64.5137 67.9307 64.5469C68.9932 64.5469 70.0723 64.5469 71.168 64.5469C72.2637 64.5469 73.3428 64.5469 74.4053 64.5469C75.4678 64.5137 76.4141 64.4805 77.2441 64.4473C78.6055 64.4473 79.9668 64.5967 81.3281 64.8955C82.6895 65.1611 83.918 65.6426 85.0137 66.3398C86.1094 67.0039 87.0059 67.9004 87.7031 69.0293C88.4004 70.125 88.749 71.4863 88.749 73.1133C88.749 74.4082 88.5166 75.5371 88.0518 76.5C87.5869 77.4297 86.9727 78.2266 86.209 78.8906C85.4453 79.5879 84.5654 80.1689 83.5693 80.6338C82.5732 81.0654 81.5605 81.4141 80.5312 81.6797C82.0586 81.7129 83.5195 81.9619 84.9141 82.4268C86.3418 82.8916 87.5869 83.5557 88.6494 84.4189C89.7451 85.249 90.6084 86.2783 91.2393 87.5068C91.8701 88.7354 92.1855 90.1133 92.1855 91.6406C92.1855 94.5625 91.0234 96.9531 88.6992 98.8125C86.375 100.672 83.0381 101.602 78.6885 101.602C77.7256 101.602 76.6631 101.602 75.501 101.602C74.3389 101.568 73.1436 101.552 71.915 101.552C70.6865 101.552 69.4746 101.568 68.2793 101.602C67.1172 101.602 66.0713 101.602 65.1416 101.602V100.406ZM97.708 102.896C97.2334 102.896 96.8467 102.747 96.5479 102.448C96.249 102.149 96.0996 101.771 96.0996 101.314C96.0996 100.875 96.249 100.506 96.5479 100.207C96.8467 99.8906 97.2334 99.7324 97.708 99.7324C98.1826 99.7324 98.5781 99.8906 98.8945 100.207C99.2109 100.506 99.3691 100.875 99.3691 101.314C99.3691 101.771 99.2109 102.149 98.8945 102.448C98.5781 102.747 98.1826 102.896 97.708 102.896Z" fill="#F8F8F8"/>
<line x1="206.5" y1="159.013" x2="206.5" y2="9" stroke="#F8F8F8"/>
<path d="M250.533 104.371C250.533 105.582 250.614 106.551 250.775 107.277C250.937 107.964 251.28 108.488 251.805 108.852C252.329 109.215 253.036 109.437 253.924 109.518C254.852 109.598 256.083 109.639 257.617 109.639C261.129 109.639 263.914 108.852 265.973 107.277C268.072 105.703 269.121 103.301 269.121 100.072C269.121 96.1569 267.87 93.3112 265.367 91.5352C262.865 89.7188 259.615 88.8105 255.619 88.8105H250.533V104.371ZM250.533 86.8125H254.166C257.355 86.8125 259.999 86.0859 262.098 84.6328C264.237 83.1797 265.307 80.5964 265.307 76.8828C265.307 73.4922 264.298 71.2116 262.279 70.041C260.261 68.8301 257.637 68.2246 254.408 68.2246C254.005 68.2246 253.379 68.2448 252.531 68.2852C251.684 68.3255 251.018 68.3457 250.533 68.3457V86.8125ZM240.604 110.062C241.814 110.062 242.803 110.002 243.57 109.881C244.337 109.719 244.923 109.437 245.326 109.033C245.77 108.589 246.073 108.004 246.234 107.277C246.396 106.51 246.477 105.521 246.477 104.311V73.1895C246.477 71.1309 246.093 69.7383 245.326 69.0117C244.6 68.2852 243.025 67.9017 240.604 67.8613V66.3477C241.572 66.388 242.702 66.4284 243.994 66.4688C245.286 66.4688 246.598 66.4688 247.93 66.4688C249.262 66.4688 250.574 66.4688 251.865 66.4688C253.157 66.4284 254.307 66.388 255.316 66.3477C256.971 66.3477 258.626 66.5293 260.281 66.8926C261.936 67.2155 263.43 67.8008 264.762 68.6484C266.094 69.4557 267.184 70.5456 268.031 71.918C268.879 73.25 269.303 74.9049 269.303 76.8828C269.303 78.457 269.02 79.8294 268.455 81C267.89 82.1302 267.143 83.099 266.215 83.9062C265.286 84.7539 264.217 85.4603 263.006 86.0254C261.795 86.5501 260.564 86.974 259.312 87.2969C261.169 87.3372 262.945 87.64 264.641 88.2051C266.376 88.7702 267.89 89.5775 269.182 90.627C270.514 91.6361 271.563 92.8874 272.33 94.3809C273.097 95.8743 273.48 97.5495 273.48 99.4062C273.48 102.958 272.068 105.865 269.242 108.125C266.417 110.385 262.36 111.516 257.072 111.516C255.902 111.516 254.61 111.516 253.197 111.516C251.785 111.475 250.331 111.455 248.838 111.455C247.344 111.455 245.871 111.475 244.418 111.516C243.005 111.516 241.734 111.516 240.604 111.516V110.062ZM286.195 88.6289C286.801 87.8216 287.487 87.0345 288.254 86.2676C289.021 85.4603 289.788 84.7337 290.555 84.0879C291.362 83.4824 292.149 82.998 292.916 82.6348C293.683 82.2311 294.41 82.0293 295.096 82.0293C296.064 82.0293 296.912 82.2917 297.639 82.8164C298.365 83.3008 298.729 83.987 298.729 84.875C298.729 85.8438 298.426 86.5905 297.82 87.1152C297.255 87.5996 296.71 87.8418 296.186 87.8418C295.701 87.8418 295.318 87.7812 295.035 87.6602C294.753 87.4987 294.47 87.3171 294.188 87.1152C293.905 86.9134 293.582 86.7318 293.219 86.5703C292.896 86.4089 292.452 86.3281 291.887 86.3281C291.523 86.3281 291.019 86.5098 290.373 86.873C289.727 87.2363 289.102 87.7005 288.496 88.2656C287.85 88.8307 287.305 89.4967 286.861 90.2637C286.417 90.9902 286.195 91.737 286.195 92.5039V105.34C286.195 106.309 286.256 107.116 286.377 107.762C286.538 108.367 286.861 108.831 287.346 109.154C287.83 109.477 288.516 109.699 289.404 109.82C290.292 109.941 291.483 110.002 292.977 110.002V111.516C292.048 111.475 290.898 111.455 289.525 111.455C288.153 111.415 286.74 111.395 285.287 111.395C283.834 111.395 282.421 111.415 281.049 111.455C279.676 111.455 278.526 111.475 277.598 111.516V110.002C279.656 110.002 280.988 109.74 281.594 109.215C282.199 108.69 282.502 107.398 282.502 105.34V91.1113C282.502 90.0215 282.462 89.1536 282.381 88.5078C282.3 87.862 282.139 87.3574 281.896 86.9941C281.654 86.6309 281.291 86.3887 280.807 86.2676C280.322 86.1465 279.656 86.0859 278.809 86.0859V84.8145C280.1 84.6126 281.271 84.3099 282.32 83.9062C283.41 83.5026 284.419 82.877 285.348 82.0293H286.438C286.316 83.1191 286.236 84.2493 286.195 85.4199C286.195 86.5905 286.195 87.6602 286.195 88.6289ZM310.111 105.945C310.111 107.681 310.394 108.791 310.959 109.275C311.524 109.76 312.695 110.002 314.471 110.002V111.516C313.906 111.516 313.381 111.516 312.896 111.516C312.412 111.516 311.928 111.495 311.443 111.455C310.959 111.455 310.454 111.455 309.93 111.455C309.445 111.415 308.921 111.395 308.355 111.395C307.75 111.395 307.185 111.415 306.66 111.455C306.176 111.455 305.691 111.455 305.207 111.455C304.682 111.455 304.158 111.475 303.633 111.516C303.148 111.516 302.624 111.516 302.059 111.516V110.002C303.835 110.002 305.005 109.76 305.57 109.275C306.135 108.791 306.418 107.681 306.418 105.945V91.1113C306.418 90.0215 306.378 89.1536 306.297 88.5078C306.216 87.862 306.055 87.3574 305.812 86.9941C305.57 86.6309 305.207 86.3887 304.723 86.2676C304.238 86.1465 303.572 86.0859 302.725 86.0859V84.8145C304.016 84.6126 305.187 84.3099 306.236 83.9062C307.326 83.5026 308.335 82.877 309.264 82.0293H310.354C310.232 83.1191 310.152 84.2897 310.111 85.541C310.111 86.752 310.111 87.8418 310.111 88.8105V105.945ZM305.146 68.7695C305.146 67.9622 305.429 67.2559 305.994 66.6504C306.6 66.0449 307.306 65.7422 308.113 65.7422C308.921 65.7422 309.627 66.0449 310.232 66.6504C310.838 67.2559 311.141 67.9622 311.141 68.7695C311.141 69.5768 310.838 70.2832 310.232 70.8887C309.627 71.4538 308.921 71.7363 308.113 71.7363C307.306 71.7363 306.6 71.4538 305.994 70.8887C305.429 70.2832 305.146 69.5768 305.146 68.7695ZM323.129 71.5547C323.129 70.5052 323.068 69.6777 322.947 69.0723C322.867 68.4264 322.665 67.9219 322.342 67.5586C322.059 67.2357 321.635 67.0339 321.07 66.9531C320.546 66.8724 319.859 66.832 319.012 66.832V65.6211C320.303 65.3789 321.555 65.0156 322.766 64.5312C324.017 64.0065 325.107 63.3203 326.035 62.4727H327.125C327.004 63.5625 326.923 64.7331 326.883 65.9844C326.842 67.1953 326.822 68.2852 326.822 69.2539V105.34C326.822 107.035 327.105 108.246 327.67 108.973C328.235 109.659 329.406 110.002 331.182 110.002V111.516C330.294 111.516 329.285 111.516 328.154 111.516C327.064 111.475 325.975 111.455 324.885 111.455C323.755 111.455 322.645 111.455 321.555 111.455C320.505 111.455 319.577 111.475 318.77 111.516V110.002C320.586 110.002 321.757 109.699 322.281 109.094C322.846 108.448 323.129 107.197 323.129 105.34V71.5547ZM339.84 71.5547C339.84 70.5052 339.779 69.6777 339.658 69.0723C339.577 68.4264 339.376 67.9219 339.053 67.5586C338.77 67.2357 338.346 67.0339 337.781 66.9531C337.257 66.8724 336.57 66.832 335.723 66.832V65.6211C337.014 65.3789 338.266 65.0156 339.477 64.5312C340.728 64.0065 341.818 63.3203 342.746 62.4727H343.836C343.715 63.5625 343.634 64.7331 343.594 65.9844C343.553 67.1953 343.533 68.2852 343.533 69.2539V105.34C343.533 107.035 343.816 108.246 344.381 108.973C344.946 109.659 346.117 110.002 347.893 110.002V111.516C347.005 111.516 345.995 111.516 344.865 111.516C343.775 111.475 342.686 111.455 341.596 111.455C340.465 111.455 339.355 111.455 338.266 111.455C337.216 111.455 336.288 111.475 335.48 111.516V110.002C337.297 110.002 338.467 109.699 338.992 109.094C339.557 108.448 339.84 107.197 339.84 105.34V71.5547ZM369.811 96.7422C365.37 98.0742 362.04 99.3255 359.82 100.496C357.641 101.626 356.551 103.079 356.551 104.855C356.551 106.712 357.015 107.984 357.943 108.67C358.912 109.316 360.244 109.639 361.939 109.639C363.433 109.639 364.866 109.235 366.238 108.428C367.611 107.62 368.801 106.672 369.811 105.582V96.7422ZM378.953 109.215C378.065 110.062 377.117 110.829 376.107 111.516C375.139 112.202 374.15 112.545 373.141 112.545C372.172 112.545 371.385 112.101 370.779 111.213C370.214 110.325 369.891 109.033 369.811 107.338C368.317 108.912 366.662 110.184 364.846 111.152C363.029 112.081 361.132 112.545 359.154 112.545C357.338 112.545 355.804 111.96 354.553 110.789C353.301 109.578 352.716 108.064 352.797 106.248C352.837 104.755 353.281 103.483 354.129 102.434C355.017 101.344 356.228 100.395 357.762 99.5879C359.255 98.7806 361.031 98.0339 363.09 97.3477C365.148 96.6615 367.389 95.9349 369.811 95.168V90.9902C369.811 89.2142 369.387 87.7611 368.539 86.6309C367.732 85.4603 366.137 84.875 363.756 84.875C362.061 84.875 360.547 85.3796 359.215 86.3887C357.923 87.3574 357.257 88.5482 357.217 89.9609C357.217 90.9297 357.015 91.6361 356.611 92.0801C356.248 92.5241 355.784 92.7461 355.219 92.7461C354.734 92.7461 354.351 92.5443 354.068 92.1406C353.826 91.737 353.705 91.2122 353.705 90.5664C353.705 89.4766 354.21 88.4271 355.219 87.418C356.268 86.4089 357.943 85.2988 360.244 84.0879C361.576 83.3613 362.666 82.8366 363.514 82.5137C364.402 82.1908 365.33 82.0293 366.299 82.0293C368.236 82.0293 369.911 82.6146 371.324 83.7852C372.777 84.9557 373.504 86.651 373.504 88.8711V105.4C373.504 107.661 373.988 108.952 374.957 109.275C375.966 109.598 377.238 109.235 378.771 108.186L378.953 109.215ZM391.305 82.0293C391.184 83.1191 391.103 84.1888 391.062 85.2383C391.062 86.2878 391.062 87.0749 391.062 87.5996C392.879 86.2676 394.837 84.9961 396.936 83.7852C399.035 82.5742 401.053 81.9688 402.99 81.9688C405.412 81.9688 407.148 82.8568 408.197 84.6328C409.247 86.3685 409.771 88.4876 409.771 90.9902V105.34C409.771 107.035 410.054 108.246 410.619 108.973C411.184 109.659 412.375 110.002 414.191 110.002V111.516C413.626 111.516 413.081 111.516 412.557 111.516C412.072 111.516 411.588 111.495 411.104 111.455C410.619 111.455 410.115 111.455 409.59 111.455C409.105 111.415 408.581 111.395 408.016 111.395C407.41 111.395 406.845 111.415 406.32 111.455C405.836 111.455 405.352 111.455 404.867 111.455C404.383 111.455 403.878 111.475 403.354 111.516C402.869 111.516 402.344 111.516 401.779 111.516V110.002C403.515 110.002 404.665 109.659 405.23 108.973C405.796 108.246 406.078 107.035 406.078 105.34V90.9297C406.078 88.9115 405.614 87.4583 404.686 86.5703C403.757 85.6823 402.223 85.2383 400.084 85.2383C399.479 85.2786 398.772 85.4401 397.965 85.7227C397.158 85.9648 396.35 86.2676 395.543 86.6309C394.695 87.0345 393.868 87.4785 393.061 87.9629C392.294 88.4473 391.628 88.9316 391.062 89.416V105.34C391.062 107.035 391.345 108.246 391.91 108.973C392.475 109.659 393.666 110.002 395.482 110.002V111.516C394.877 111.516 394.332 111.516 393.848 111.516C393.363 111.516 392.879 111.495 392.395 111.455C391.91 111.455 391.406 111.455 390.881 111.455C390.396 111.415 389.872 111.395 389.307 111.395C388.701 111.395 388.136 111.415 387.611 111.455C387.127 111.455 386.643 111.455 386.158 111.455C385.633 111.455 385.109 111.475 384.584 111.516C384.1 111.516 383.575 111.516 383.01 111.516V110.002C384.786 110.002 385.936 109.659 386.461 108.973C387.026 108.246 387.309 107.035 387.309 105.34V91.1113C387.309 90.0215 387.268 89.1536 387.188 88.5078C387.147 87.862 387.006 87.3574 386.764 86.9941C386.521 86.6309 386.158 86.3887 385.674 86.2676C385.189 86.1465 384.523 86.0859 383.676 86.0859V84.8145C384.967 84.6126 386.138 84.3099 387.188 83.9062C388.277 83.5026 389.266 82.877 390.154 82.0293H391.305ZM442.891 105.824C441.276 107.762 439.419 109.376 437.32 110.668C435.262 111.919 433.082 112.545 430.781 112.545C429.167 112.545 427.613 112.161 426.119 111.395C424.666 110.628 423.374 109.598 422.244 108.307C421.114 107.055 420.206 105.602 419.52 103.947C418.874 102.292 418.551 100.597 418.551 98.8613C418.551 96.5202 418.934 94.3203 419.701 92.2617C420.468 90.2031 421.558 88.4069 422.971 86.873C424.343 85.3796 425.958 84.1888 427.814 83.3008C429.712 82.4128 431.77 81.9688 433.99 81.9688C434.757 81.9688 435.605 82.0495 436.533 82.2109C437.462 82.3724 438.329 82.6348 439.137 82.998C439.944 83.321 440.61 83.765 441.135 84.3301C441.7 84.8952 441.982 85.5814 441.982 86.3887C441.982 87.1152 441.821 87.7207 441.498 88.2051C441.215 88.6895 440.872 88.9316 440.469 88.9316C440.105 88.9316 439.702 88.7904 439.258 88.5078C438.854 88.1849 438.37 87.5391 437.805 86.5703C437.401 85.8438 436.715 85.2181 435.746 84.6934C434.777 84.1686 433.385 83.9062 431.568 83.9062C429.994 83.9062 428.602 84.3099 427.391 85.1172C426.22 85.8841 425.251 86.873 424.484 88.084C423.717 89.2546 423.132 90.5462 422.729 91.959C422.365 93.3717 422.184 94.6836 422.184 95.8945C422.184 97.5898 422.385 99.2246 422.789 100.799C423.233 102.373 423.919 103.745 424.848 104.916C425.776 106.127 426.947 107.096 428.359 107.822C429.772 108.508 431.447 108.852 433.385 108.852C435.242 108.852 436.917 108.468 438.41 107.701C439.904 106.934 441.135 106.087 442.104 105.158L442.891 105.824ZM450.943 93.5938C450.822 94.1992 450.762 94.8451 450.762 95.5312C450.762 96.2174 450.802 97.1055 450.883 98.1953C451.085 101.263 452.033 103.846 453.729 105.945C455.424 108.004 457.745 109.033 460.691 109.033C462.71 109.033 464.445 108.65 465.898 107.883C467.392 107.076 468.623 106.087 469.592 104.916L470.439 105.461C469.309 107.479 467.775 109.174 465.838 110.547C463.941 111.879 461.801 112.545 459.42 112.545C457.684 112.545 456.07 112.182 454.576 111.455C453.123 110.729 451.852 109.719 450.762 108.428C449.672 107.136 448.804 105.622 448.158 103.887C447.553 102.151 447.25 100.254 447.25 98.1953C447.25 95.6523 447.573 93.3717 448.219 91.3535C448.865 89.3353 449.732 87.64 450.822 86.2676C451.952 84.8548 453.264 83.7852 454.758 83.0586C456.292 82.332 457.926 81.9688 459.662 81.9688C460.873 81.9688 462.084 82.1706 463.295 82.5742C464.506 82.9779 465.596 83.5833 466.564 84.3906C467.533 85.2383 468.32 86.3079 468.926 87.5996C469.531 88.8509 469.854 90.3444 469.895 92.0801C469.895 92.5645 469.834 92.9277 469.713 93.1699C469.592 93.3717 469.289 93.513 468.805 93.5938H450.943ZM463.9 91.6562C464.627 91.6562 465.152 91.5553 465.475 91.3535C465.798 91.1113 465.959 90.6875 465.959 90.082C465.959 89.4362 465.798 88.75 465.475 88.0234C465.192 87.2969 464.788 86.6309 464.264 86.0254C463.699 85.4199 463.012 84.9154 462.205 84.5117C461.398 84.1081 460.469 83.9062 459.42 83.9062C457.119 83.9062 455.262 84.6328 453.85 86.0859C452.477 87.4987 451.569 89.3555 451.125 91.6562H463.9ZM492.465 100.92H494.16C494.443 102.131 494.766 103.322 495.129 104.492C495.492 105.663 495.997 106.692 496.643 107.58C497.329 108.508 498.197 109.255 499.246 109.82C500.296 110.345 501.668 110.607 503.363 110.607C506.471 110.607 509.014 109.78 510.992 108.125C512.97 106.47 513.959 104.391 513.959 101.889C513.959 100.436 513.697 99.1641 513.172 98.0742C512.647 96.944 511.961 95.9551 511.113 95.1074C510.225 94.2598 509.196 93.4928 508.025 92.8066C506.895 92.1204 505.704 91.4342 504.453 90.748C503.161 90.1022 501.89 89.3757 500.639 88.5684C499.387 87.7611 498.237 86.8529 497.188 85.8438C496.178 84.7943 495.351 83.6237 494.705 82.332C494.1 81 493.797 79.5065 493.797 77.8516C493.797 75.7122 494.14 73.8555 494.826 72.2812C495.512 70.707 496.461 69.4154 497.672 68.4062C498.883 67.3568 500.296 66.5898 501.91 66.1055C503.525 65.5807 505.26 65.3184 507.117 65.3184C507.723 65.3184 508.308 65.3587 508.873 65.4395C509.438 65.4798 510.003 65.5202 510.568 65.5605C511.133 65.6413 511.699 65.7422 512.264 65.8633C512.869 65.944 513.515 66.0247 514.201 66.1055L515.23 74.4609H513.656C513.253 72.0391 512.546 70.2227 511.537 69.0117C510.528 67.8008 508.752 67.1953 506.209 67.1953C503.061 67.1953 500.699 68.043 499.125 69.7383C497.591 71.3932 496.824 73.3711 496.824 75.6719C496.824 77.125 497.147 78.4368 497.793 79.6074C498.439 80.7376 499.266 81.7669 500.275 82.6953C501.325 83.6237 502.495 84.4512 503.787 85.1777C505.079 85.9043 506.391 86.5905 507.723 87.2363C509.014 87.9225 510.245 88.6491 511.416 89.416C512.627 90.1426 513.697 90.9701 514.625 91.8984C515.553 92.8672 516.3 93.9772 516.865 95.2285C517.43 96.4395 517.713 97.832 517.713 99.4062C517.713 101.586 517.269 103.503 516.381 105.158C515.533 106.773 514.423 108.145 513.051 109.275C511.638 110.365 510.044 111.193 508.268 111.758C506.532 112.283 504.776 112.545 503 112.545C501.345 112.545 499.73 112.383 498.156 112.061C496.622 111.738 495.21 111.273 493.918 110.668L492.465 100.92ZM530.125 103.584C530.125 105.925 530.468 107.52 531.154 108.367C531.84 109.215 532.769 109.639 533.939 109.639C534.303 109.639 534.747 109.578 535.271 109.457C535.837 109.336 536.382 109.174 536.906 108.973C537.471 108.771 537.976 108.569 538.42 108.367C538.864 108.165 539.207 107.964 539.449 107.762L539.994 108.609C538.824 109.82 537.592 110.789 536.301 111.516C535.009 112.202 533.596 112.545 532.062 112.545C530.286 112.545 528.894 112.04 527.885 111.031C526.876 110.022 526.371 108.549 526.371 106.611V86.3281H522.133V85.1777C524.151 84.6126 525.665 83.6237 526.674 82.2109C527.683 80.7982 528.41 78.8203 528.854 76.2773H530.125V83.6641H539.812V86.3281H530.125V103.584ZM573.174 97.1055C573.174 99.2448 572.79 101.263 572.023 103.16C571.257 105.017 570.227 106.632 568.936 108.004C567.644 109.417 566.13 110.527 564.395 111.334C562.699 112.141 560.883 112.545 558.945 112.545C556.927 112.545 555.01 112.202 553.193 111.516C551.377 110.829 549.783 109.82 548.41 108.488C547.038 107.197 545.948 105.622 545.141 103.766C544.333 101.868 543.93 99.7493 543.93 97.4082C543.93 95.3092 544.273 93.3314 544.959 91.4746C545.686 89.5775 546.674 87.9225 547.926 86.5098C549.217 85.1374 550.731 84.0475 552.467 83.2402C554.202 82.3926 556.1 81.9688 558.158 81.9688C560.257 81.9688 562.215 82.332 564.031 83.0586C565.888 83.7448 567.482 84.7539 568.814 86.0859C570.146 87.3776 571.196 88.972 571.963 90.8691C572.77 92.7259 573.174 94.8047 573.174 97.1055ZM568.693 97.7715C568.693 96.278 568.512 94.7038 568.148 93.0488C567.785 91.3535 567.2 89.8197 566.393 88.4473C565.545 87.0345 564.455 85.8841 563.123 84.9961C561.831 84.0677 560.237 83.6035 558.34 83.6035C556.523 83.6035 554.969 84.0072 553.678 84.8145C552.426 85.6217 551.417 86.651 550.65 87.9023C549.883 89.194 549.318 90.627 548.955 92.2012C548.632 93.735 548.471 95.2487 548.471 96.7422C548.471 98.1549 548.652 99.6888 549.016 101.344C549.379 102.958 549.964 104.472 550.771 105.885C551.579 107.298 552.628 108.488 553.92 109.457C555.252 110.385 556.887 110.85 558.824 110.85C560.641 110.85 562.174 110.446 563.426 109.639C564.677 108.831 565.686 107.782 566.453 106.49C567.26 105.239 567.826 103.846 568.148 102.312C568.512 100.738 568.693 99.2246 568.693 97.7715ZM586.191 88.6289C586.797 87.8216 587.483 87.0345 588.25 86.2676C589.017 85.4603 589.784 84.7337 590.551 84.0879C591.358 83.4824 592.145 82.998 592.912 82.6348C593.679 82.2311 594.406 82.0293 595.092 82.0293C596.061 82.0293 596.908 82.2917 597.635 82.8164C598.361 83.3008 598.725 83.987 598.725 84.875C598.725 85.8438 598.422 86.5905 597.816 87.1152C597.251 87.5996 596.706 87.8418 596.182 87.8418C595.697 87.8418 595.314 87.7812 595.031 87.6602C594.749 87.4987 594.466 87.3171 594.184 87.1152C593.901 86.9134 593.578 86.7318 593.215 86.5703C592.892 86.4089 592.448 86.3281 591.883 86.3281C591.52 86.3281 591.015 86.5098 590.369 86.873C589.723 87.2363 589.098 87.7005 588.492 88.2656C587.846 88.8307 587.301 89.4967 586.857 90.2637C586.413 90.9902 586.191 91.737 586.191 92.5039V105.34C586.191 106.309 586.252 107.116 586.373 107.762C586.535 108.367 586.857 108.831 587.342 109.154C587.826 109.477 588.512 109.699 589.4 109.82C590.288 109.941 591.479 110.002 592.973 110.002V111.516C592.044 111.475 590.894 111.455 589.521 111.455C588.149 111.415 586.736 111.395 585.283 111.395C583.83 111.395 582.417 111.415 581.045 111.455C579.673 111.455 578.522 111.475 577.594 111.516V110.002C579.652 110.002 580.984 109.74 581.59 109.215C582.195 108.69 582.498 107.398 582.498 105.34V91.1113C582.498 90.0215 582.458 89.1536 582.377 88.5078C582.296 87.862 582.135 87.3574 581.893 86.9941C581.65 86.6309 581.287 86.3887 580.803 86.2676C580.318 86.1465 579.652 86.0859 578.805 86.0859V84.8145C580.096 84.6126 581.267 84.3099 582.316 83.9062C583.406 83.5026 584.415 82.877 585.344 82.0293H586.434C586.312 83.1191 586.232 84.2493 586.191 85.4199C586.191 86.5905 586.191 87.6602 586.191 88.6289ZM606.051 93.5938C605.93 94.1992 605.869 94.8451 605.869 95.5312C605.869 96.2174 605.91 97.1055 605.99 98.1953C606.192 101.263 607.141 103.846 608.836 105.945C610.531 108.004 612.852 109.033 615.799 109.033C617.817 109.033 619.553 108.65 621.006 107.883C622.499 107.076 623.73 106.087 624.699 104.916L625.547 105.461C624.417 107.479 622.883 109.174 620.945 110.547C619.048 111.879 616.909 112.545 614.527 112.545C612.792 112.545 611.177 112.182 609.684 111.455C608.23 110.729 606.959 109.719 605.869 108.428C604.779 107.136 603.911 105.622 603.266 103.887C602.66 102.151 602.357 100.254 602.357 98.1953C602.357 95.6523 602.68 93.3717 603.326 91.3535C603.972 89.3353 604.84 87.64 605.93 86.2676C607.06 84.8548 608.372 83.7852 609.865 83.0586C611.399 82.332 613.034 81.9688 614.77 81.9688C615.98 81.9688 617.191 82.1706 618.402 82.5742C619.613 82.9779 620.703 83.5833 621.672 84.3906C622.641 85.2383 623.428 86.3079 624.033 87.5996C624.639 88.8509 624.962 90.3444 625.002 92.0801C625.002 92.5645 624.941 92.9277 624.82 93.1699C624.699 93.3717 624.396 93.513 623.912 93.5938H606.051ZM619.008 91.6562C619.734 91.6562 620.259 91.5553 620.582 91.3535C620.905 91.1113 621.066 90.6875 621.066 90.082C621.066 89.4362 620.905 88.75 620.582 88.0234C620.299 87.2969 619.896 86.6309 619.371 86.0254C618.806 85.4199 618.12 84.9154 617.312 84.5117C616.505 84.1081 615.577 83.9062 614.527 83.9062C612.227 83.9062 610.37 84.6328 608.957 86.0859C607.585 87.4987 606.676 89.3555 606.232 91.6562H619.008Z" fill="#F8F8F8"/>
</svg>
