<svg width="277" height="208" viewBox="0 0 277 208" fill="none" xmlns="http://www.w3.org/2000/svg">
<rect x="89.5036" y="24.5036" width="99" height="99" fill="#FBFBFB" stroke="#393939"/>
<rect x="91.5036" y="26.5036" width="95" height="95" stroke="#393939"/>
<rect x="93.5036" y="28.5036" width="91" height="91" stroke="#393939"/>
<rect x="69" y="74.0036" width="99" height="99" transform="rotate(-45 69 74.0036)" fill="#FBFBFB" stroke="#393939"/>
<rect x="71.8284" y="74.0036" width="95" height="95" transform="rotate(-45 71.8284 74.0036)" stroke="#393939"/>
<rect x="74.6569" y="74.0036" width="91" height="91" transform="rotate(-45 74.6569 74.0036)" stroke="#393939"/>
<rect x="90" y="49" width="3" height="50" fill="white"/>
<line x1="93.5" y1="49" x2="93.5" y2="99" stroke="#393939"/>
<line x1="89.5" y1="49" x2="89.5" y2="99" stroke="#393939"/>
<line x1="93.5" y1="49" x2="93.5" y2="99" stroke="#393939"/>
<line x1="91.5" y1="49" x2="91.5" y2="99" stroke="#393939"/>
<rect x="185" y="49" width="3" height="50" fill="#FBFBFB"/>
<line x1="188.5" y1="49" x2="188.5" y2="99" stroke="#393939"/>
<line x1="184.5" y1="49" x2="184.5" y2="99" stroke="#393939"/>
<line x1="188.5" y1="49" x2="188.5" y2="99" stroke="#393939"/>
<line x1="186.5" y1="49" x2="186.5" y2="99" stroke="#393939"/>
<line x1="124" y1="24.5" x2="154" y2="24.5" stroke="#393939"/>
<line x1="120" y1="28.5" x2="158" y2="28.5" stroke="#393939"/>
<circle cx="126.5" cy="26.5" r="0.5" fill="#393939"/>
<circle cx="151.5" cy="26.5" r="0.5" fill="#393939"/>
<path d="M139.5 26.5C139.5 26.7761 139.276 27 139 27C138.724 27 138.5 26.7761 138.5 26.5C138.5 26.2239 138.724 26 139 26C139.276 26 139.5 26.2239 139.5 26.5Z" fill="#393939"/>
<circle cx="135.5" cy="26.5" r="0.5" fill="#393939"/>
<circle cx="142.5" cy="26.5" r="0.5" fill="#393939"/>
<circle cx="132.5" cy="26.5" r="0.5" fill="#393939"/>
<circle cx="145.5" cy="26.5" r="0.5" fill="#393939"/>
<circle cx="129.5" cy="26.5" r="0.5" fill="#393939"/>
<circle cx="148.5" cy="26.5" r="0.5" fill="#393939"/>
<path d="M140.986 26.3812C140.986 26.6573 140.762 26.8812 140.486 26.8812C140.21 26.8812 139.986 26.6573 139.986 26.3812C139.986 26.105 140.21 25.8812 140.486 25.8812C140.762 25.8812 140.986 26.105 140.986 26.3812Z" fill="#393939"/>
<line x1="120" y1="119.5" x2="158" y2="119.5" stroke="#393939"/>
<line x1="124" y1="123.5" x2="154" y2="123.5" stroke="#393939"/>
<circle cx="126.5" cy="121.5" r="0.5" fill="#393939"/>
<circle cx="151.5" cy="121.5" r="0.5" fill="#393939"/>
<path d="M139.5 121.5C139.5 121.776 139.276 122 139 122C138.724 122 138.5 121.776 138.5 121.5C138.5 121.224 138.724 121 139 121C139.276 121 139.5 121.224 139.5 121.5Z" fill="#393939"/>
<circle cx="135.5" cy="121.5" r="0.5" fill="#393939"/>
<circle cx="142.5" cy="121.5" r="0.5" fill="#393939"/>
<circle cx="132.5" cy="121.5" r="0.5" fill="#393939"/>
<circle cx="145.5" cy="121.5" r="0.5" fill="#393939"/>
<circle cx="129.5" cy="121.5" r="0.5" fill="#393939"/>
<circle cx="148.5" cy="121.5" r="0.5" fill="#393939"/>
<path d="M129.31 85.7246C129.31 86.7207 129.376 87.5176 129.509 88.1152C129.642 88.6797 129.924 89.1113 130.355 89.4102C130.787 89.709 131.368 89.8916 132.099 89.958C132.862 90.0244 133.875 90.0576 135.137 90.0576C138.025 90.0576 140.316 89.4102 142.01 88.1152C143.736 86.8203 144.6 84.8447 144.6 82.1885C144.6 78.9678 143.57 76.627 141.512 75.166C139.453 73.6719 136.78 72.9248 133.493 72.9248H129.31V85.7246ZM129.31 71.2812H132.298C134.921 71.2812 137.096 70.6836 138.822 69.4883C140.582 68.293 141.462 66.168 141.462 63.1133C141.462 60.3242 140.632 58.4482 138.972 57.4854C137.312 56.4893 135.153 55.9912 132.497 55.9912C132.165 55.9912 131.65 56.0078 130.953 56.041C130.256 56.0742 129.708 56.0908 129.31 56.0908V71.2812ZM121.142 90.4062C122.138 90.4062 122.951 90.3564 123.582 90.2568C124.213 90.124 124.694 89.8916 125.026 89.5596C125.392 89.1943 125.641 88.7129 125.773 88.1152C125.906 87.4844 125.973 86.6709 125.973 85.6748V60.0752C125.973 58.3818 125.657 57.2363 125.026 56.6387C124.429 56.041 123.134 55.7256 121.142 55.6924V54.4473C121.938 54.4805 122.868 54.5137 123.931 54.5469C124.993 54.5469 126.072 54.5469 127.168 54.5469C128.264 54.5469 129.343 54.5469 130.405 54.5469C131.468 54.5137 132.414 54.4805 133.244 54.4473C134.605 54.4473 135.967 54.5967 137.328 54.8955C138.689 55.1611 139.918 55.6426 141.014 56.3398C142.109 57.0039 143.006 57.9004 143.703 59.0293C144.4 60.125 144.749 61.4863 144.749 63.1133C144.749 64.4082 144.517 65.5371 144.052 66.5C143.587 67.4297 142.973 68.2266 142.209 68.8906C141.445 69.5879 140.565 70.1689 139.569 70.6338C138.573 71.0654 137.561 71.4141 136.531 71.6797C138.059 71.7129 139.52 71.9619 140.914 72.4268C142.342 72.8916 143.587 73.5557 144.649 74.4189C145.745 75.249 146.608 76.2783 147.239 77.5068C147.87 78.7354 148.186 80.1133 148.186 81.6406C148.186 84.5625 147.023 86.9531 144.699 88.8125C142.375 90.6719 139.038 91.6016 134.688 91.6016C133.726 91.6016 132.663 91.6016 131.501 91.6016C130.339 91.5684 129.144 91.5518 127.915 91.5518C126.687 91.5518 125.475 91.5684 124.279 91.6016C123.117 91.6016 122.071 91.6016 121.142 91.6016V90.4062ZM153.708 92.8965C153.233 92.8965 152.847 92.7471 152.548 92.4482C152.249 92.1494 152.1 91.7715 152.1 91.3145C152.1 90.875 152.249 90.5059 152.548 90.207C152.847 89.8906 153.233 89.7324 153.708 89.7324C154.183 89.7324 154.578 89.8906 154.895 90.207C155.211 90.5059 155.369 90.875 155.369 91.3145C155.369 91.7715 155.211 92.1494 154.895 92.4482C154.578 92.7471 154.183 92.8965 153.708 92.8965Z" fill="black"/>
<path d="M25.5332 191.371C25.5332 192.582 25.6139 193.551 25.7754 194.277C25.9368 194.964 26.2799 195.488 26.8047 195.852C27.3294 196.215 28.0358 196.437 28.9238 196.518C29.8522 196.598 31.0833 196.639 32.6172 196.639C36.1289 196.639 38.9141 195.852 40.9727 194.277C43.0716 192.703 44.1211 190.301 44.1211 187.072C44.1211 183.157 42.8698 180.311 40.3672 178.535C37.8646 176.719 34.6152 175.811 30.6191 175.811H25.5332V191.371ZM25.5332 173.812H29.166C32.3548 173.812 34.9987 173.086 37.0977 171.633C39.237 170.18 40.3066 167.596 40.3066 163.883C40.3066 160.492 39.2975 158.212 37.2793 157.041C35.2611 155.83 32.6374 155.225 29.4082 155.225C29.0046 155.225 28.3789 155.245 27.5312 155.285C26.6836 155.326 26.0176 155.346 25.5332 155.346V173.812ZM15.6035 197.062C16.8145 197.062 17.8034 197.002 18.5703 196.881C19.3372 196.719 19.9225 196.437 20.3262 196.033C20.7702 195.589 21.0729 195.004 21.2344 194.277C21.3958 193.51 21.4766 192.521 21.4766 191.311V160.189C21.4766 158.131 21.0931 156.738 20.3262 156.012C19.5996 155.285 18.0254 154.902 15.6035 154.861V153.348C16.5723 153.388 17.7025 153.428 18.9941 153.469C20.2858 153.469 21.5977 153.469 22.9297 153.469C24.2617 153.469 25.5736 153.469 26.8652 153.469C28.1569 153.428 29.3073 153.388 30.3164 153.348C31.9714 153.348 33.6263 153.529 35.2812 153.893C36.9362 154.215 38.4297 154.801 39.7617 155.648C41.0938 156.456 42.1836 157.546 43.0312 158.918C43.8789 160.25 44.3027 161.905 44.3027 163.883C44.3027 165.457 44.0202 166.829 43.4551 168C42.89 169.13 42.1432 170.099 41.2148 170.906C40.2865 171.754 39.2168 172.46 38.0059 173.025C36.7949 173.55 35.5638 173.974 34.3125 174.297C36.1693 174.337 37.9453 174.64 39.6406 175.205C41.3763 175.77 42.89 176.577 44.1816 177.627C45.5137 178.636 46.5632 179.887 47.3301 181.381C48.097 182.874 48.4805 184.549 48.4805 186.406C48.4805 189.958 47.0677 192.865 44.2422 195.125C41.4167 197.385 37.36 198.516 32.0723 198.516C30.9017 198.516 29.61 198.516 28.1973 198.516C26.7845 198.475 25.3314 198.455 23.8379 198.455C22.3444 198.455 20.8711 198.475 19.418 198.516C18.0052 198.516 16.7337 198.516 15.6035 198.516V197.062ZM61.1953 175.629C61.8008 174.822 62.487 174.035 63.2539 173.268C64.0208 172.46 64.7878 171.734 65.5547 171.088C66.362 170.482 67.1491 169.998 67.916 169.635C68.6829 169.231 69.4095 169.029 70.0957 169.029C71.0645 169.029 71.9121 169.292 72.6387 169.816C73.3652 170.301 73.7285 170.987 73.7285 171.875C73.7285 172.844 73.4258 173.59 72.8203 174.115C72.2552 174.6 71.7103 174.842 71.1855 174.842C70.7012 174.842 70.3177 174.781 70.0352 174.66C69.7526 174.499 69.4701 174.317 69.1875 174.115C68.9049 173.913 68.582 173.732 68.2188 173.57C67.8958 173.409 67.4518 173.328 66.8867 173.328C66.5234 173.328 66.0189 173.51 65.373 173.873C64.7272 174.236 64.1016 174.701 63.4961 175.266C62.8503 175.831 62.3053 176.497 61.8613 177.264C61.4173 177.99 61.1953 178.737 61.1953 179.504V192.34C61.1953 193.309 61.2559 194.116 61.377 194.762C61.5384 195.367 61.8613 195.831 62.3457 196.154C62.8301 196.477 63.5163 196.699 64.4043 196.82C65.2923 196.941 66.4831 197.002 67.9766 197.002V198.516C67.0482 198.475 65.8978 198.455 64.5254 198.455C63.153 198.415 61.7402 198.395 60.2871 198.395C58.834 198.395 57.4212 198.415 56.0488 198.455C54.6764 198.455 53.526 198.475 52.5977 198.516V197.002C54.6562 197.002 55.9883 196.74 56.5938 196.215C57.1992 195.69 57.502 194.398 57.502 192.34V178.111C57.502 177.021 57.4616 176.154 57.3809 175.508C57.3001 174.862 57.1387 174.357 56.8965 173.994C56.6543 173.631 56.291 173.389 55.8066 173.268C55.3223 173.146 54.6562 173.086 53.8086 173.086V171.814C55.1003 171.613 56.2708 171.31 57.3203 170.906C58.4102 170.503 59.4193 169.877 60.3477 169.029H61.4375C61.3164 170.119 61.2357 171.249 61.1953 172.42C61.1953 173.59 61.1953 174.66 61.1953 175.629ZM85.1113 192.945C85.1113 194.681 85.3939 195.791 85.959 196.275C86.5241 196.76 87.6947 197.002 89.4707 197.002V198.516C88.9056 198.516 88.3809 198.516 87.8965 198.516C87.4121 198.516 86.9277 198.495 86.4434 198.455C85.959 198.455 85.4544 198.455 84.9297 198.455C84.4453 198.415 83.9206 198.395 83.3555 198.395C82.75 198.395 82.1849 198.415 81.6602 198.455C81.1758 198.455 80.6914 198.455 80.207 198.455C79.6823 198.455 79.1576 198.475 78.6328 198.516C78.1484 198.516 77.6237 198.516 77.0586 198.516V197.002C78.8346 197.002 80.0052 196.76 80.5703 196.275C81.1354 195.791 81.418 194.681 81.418 192.945V178.111C81.418 177.021 81.3776 176.154 81.2969 175.508C81.2161 174.862 81.0547 174.357 80.8125 173.994C80.5703 173.631 80.207 173.389 79.7227 173.268C79.2383 173.146 78.5723 173.086 77.7246 173.086V171.814C79.0163 171.613 80.1868 171.31 81.2363 170.906C82.3262 170.503 83.3353 169.877 84.2637 169.029H85.3535C85.2324 170.119 85.1517 171.29 85.1113 172.541C85.1113 173.752 85.1113 174.842 85.1113 175.811V192.945ZM80.1465 155.77C80.1465 154.962 80.429 154.256 80.9941 153.65C81.5996 153.045 82.306 152.742 83.1133 152.742C83.9206 152.742 84.627 153.045 85.2324 153.65C85.8379 154.256 86.1406 154.962 86.1406 155.77C86.1406 156.577 85.8379 157.283 85.2324 157.889C84.627 158.454 83.9206 158.736 83.1133 158.736C82.306 158.736 81.5996 158.454 80.9941 157.889C80.429 157.283 80.1465 156.577 80.1465 155.77ZM98.1289 158.555C98.1289 157.505 98.0684 156.678 97.9473 156.072C97.8665 155.426 97.6647 154.922 97.3418 154.559C97.0592 154.236 96.6354 154.034 96.0703 153.953C95.5456 153.872 94.8594 153.832 94.0117 153.832V152.621C95.3034 152.379 96.5547 152.016 97.7656 151.531C99.0169 151.007 100.107 150.32 101.035 149.473H102.125C102.004 150.562 101.923 151.733 101.883 152.984C101.842 154.195 101.822 155.285 101.822 156.254V192.34C101.822 194.035 102.105 195.246 102.67 195.973C103.235 196.659 104.406 197.002 106.182 197.002V198.516C105.294 198.516 104.285 198.516 103.154 198.516C102.064 198.475 100.975 198.455 99.8848 198.455C98.7546 198.455 97.6445 198.455 96.5547 198.455C95.5052 198.455 94.5768 198.475 93.7695 198.516V197.002C95.5859 197.002 96.7565 196.699 97.2812 196.094C97.8464 195.448 98.1289 194.197 98.1289 192.34V158.555ZM114.84 158.555C114.84 157.505 114.779 156.678 114.658 156.072C114.577 155.426 114.376 154.922 114.053 154.559C113.77 154.236 113.346 154.034 112.781 153.953C112.257 153.872 111.57 153.832 110.723 153.832V152.621C112.014 152.379 113.266 152.016 114.477 151.531C115.728 151.007 116.818 150.32 117.746 149.473H118.836C118.715 150.562 118.634 151.733 118.594 152.984C118.553 154.195 118.533 155.285 118.533 156.254V192.34C118.533 194.035 118.816 195.246 119.381 195.973C119.946 196.659 121.117 197.002 122.893 197.002V198.516C122.005 198.516 120.995 198.516 119.865 198.516C118.775 198.475 117.686 198.455 116.596 198.455C115.465 198.455 114.355 198.455 113.266 198.455C112.216 198.455 111.288 198.475 110.48 198.516V197.002C112.297 197.002 113.467 196.699 113.992 196.094C114.557 195.448 114.84 194.197 114.84 192.34V158.555ZM144.811 183.742C140.37 185.074 137.04 186.326 134.82 187.496C132.641 188.626 131.551 190.079 131.551 191.855C131.551 193.712 132.015 194.984 132.943 195.67C133.912 196.316 135.244 196.639 136.939 196.639C138.433 196.639 139.866 196.235 141.238 195.428C142.611 194.62 143.801 193.672 144.811 192.582V183.742ZM153.953 196.215C153.065 197.062 152.117 197.829 151.107 198.516C150.139 199.202 149.15 199.545 148.141 199.545C147.172 199.545 146.385 199.101 145.779 198.213C145.214 197.325 144.891 196.033 144.811 194.338C143.317 195.912 141.662 197.184 139.846 198.152C138.029 199.081 136.132 199.545 134.154 199.545C132.338 199.545 130.804 198.96 129.553 197.789C128.301 196.578 127.716 195.064 127.797 193.248C127.837 191.755 128.281 190.483 129.129 189.434C130.017 188.344 131.228 187.395 132.762 186.588C134.255 185.781 136.031 185.034 138.09 184.348C140.148 183.661 142.389 182.935 144.811 182.168V177.99C144.811 176.214 144.387 174.761 143.539 173.631C142.732 172.46 141.137 171.875 138.756 171.875C137.061 171.875 135.547 172.38 134.215 173.389C132.923 174.357 132.257 175.548 132.217 176.961C132.217 177.93 132.015 178.636 131.611 179.08C131.248 179.524 130.784 179.746 130.219 179.746C129.734 179.746 129.351 179.544 129.068 179.141C128.826 178.737 128.705 178.212 128.705 177.566C128.705 176.477 129.21 175.427 130.219 174.418C131.268 173.409 132.943 172.299 135.244 171.088C136.576 170.361 137.666 169.837 138.514 169.514C139.402 169.191 140.33 169.029 141.299 169.029C143.236 169.029 144.911 169.615 146.324 170.785C147.777 171.956 148.504 173.651 148.504 175.871V192.4C148.504 194.661 148.988 195.952 149.957 196.275C150.966 196.598 152.238 196.235 153.771 195.186L153.953 196.215ZM166.305 169.029C166.184 170.119 166.103 171.189 166.062 172.238C166.062 173.288 166.062 174.075 166.062 174.6C167.879 173.268 169.837 171.996 171.936 170.785C174.035 169.574 176.053 168.969 177.99 168.969C180.412 168.969 182.148 169.857 183.197 171.633C184.247 173.368 184.771 175.488 184.771 177.99V192.34C184.771 194.035 185.054 195.246 185.619 195.973C186.184 196.659 187.375 197.002 189.191 197.002V198.516C188.626 198.516 188.081 198.516 187.557 198.516C187.072 198.516 186.588 198.495 186.104 198.455C185.619 198.455 185.115 198.455 184.59 198.455C184.105 198.415 183.581 198.395 183.016 198.395C182.41 198.395 181.845 198.415 181.32 198.455C180.836 198.455 180.352 198.455 179.867 198.455C179.383 198.455 178.878 198.475 178.354 198.516C177.869 198.516 177.344 198.516 176.779 198.516V197.002C178.515 197.002 179.665 196.659 180.23 195.973C180.796 195.246 181.078 194.035 181.078 192.34V177.93C181.078 175.911 180.614 174.458 179.686 173.57C178.757 172.682 177.223 172.238 175.084 172.238C174.479 172.279 173.772 172.44 172.965 172.723C172.158 172.965 171.35 173.268 170.543 173.631C169.695 174.035 168.868 174.479 168.061 174.963C167.294 175.447 166.628 175.932 166.062 176.416V192.34C166.062 194.035 166.345 195.246 166.91 195.973C167.475 196.659 168.666 197.002 170.482 197.002V198.516C169.877 198.516 169.332 198.516 168.848 198.516C168.363 198.516 167.879 198.495 167.395 198.455C166.91 198.455 166.406 198.455 165.881 198.455C165.396 198.415 164.872 198.395 164.307 198.395C163.701 198.395 163.136 198.415 162.611 198.455C162.127 198.455 161.643 198.455 161.158 198.455C160.633 198.455 160.109 198.475 159.584 198.516C159.1 198.516 158.575 198.516 158.01 198.516V197.002C159.786 197.002 160.936 196.659 161.461 195.973C162.026 195.246 162.309 194.035 162.309 192.34V178.111C162.309 177.021 162.268 176.154 162.188 175.508C162.147 174.862 162.006 174.357 161.764 173.994C161.521 173.631 161.158 173.389 160.674 173.268C160.189 173.146 159.523 173.086 158.676 173.086V171.814C159.967 171.613 161.138 171.31 162.188 170.906C163.277 170.503 164.266 169.877 165.154 169.029H166.305ZM217.891 192.824C216.276 194.762 214.419 196.376 212.32 197.668C210.262 198.919 208.082 199.545 205.781 199.545C204.167 199.545 202.613 199.161 201.119 198.395C199.666 197.628 198.374 196.598 197.244 195.307C196.114 194.055 195.206 192.602 194.52 190.947C193.874 189.292 193.551 187.597 193.551 185.861C193.551 183.52 193.934 181.32 194.701 179.262C195.468 177.203 196.558 175.407 197.971 173.873C199.343 172.38 200.958 171.189 202.814 170.301C204.712 169.413 206.77 168.969 208.99 168.969C209.757 168.969 210.605 169.049 211.533 169.211C212.462 169.372 213.329 169.635 214.137 169.998C214.944 170.321 215.61 170.765 216.135 171.33C216.7 171.895 216.982 172.581 216.982 173.389C216.982 174.115 216.821 174.721 216.498 175.205C216.215 175.689 215.872 175.932 215.469 175.932C215.105 175.932 214.702 175.79 214.258 175.508C213.854 175.185 213.37 174.539 212.805 173.57C212.401 172.844 211.715 172.218 210.746 171.693C209.777 171.169 208.385 170.906 206.568 170.906C204.994 170.906 203.602 171.31 202.391 172.117C201.22 172.884 200.251 173.873 199.484 175.084C198.717 176.255 198.132 177.546 197.729 178.959C197.365 180.372 197.184 181.684 197.184 182.895C197.184 184.59 197.385 186.225 197.789 187.799C198.233 189.373 198.919 190.745 199.848 191.916C200.776 193.127 201.947 194.096 203.359 194.822C204.772 195.508 206.447 195.852 208.385 195.852C210.242 195.852 211.917 195.468 213.41 194.701C214.904 193.934 216.135 193.087 217.104 192.158L217.891 192.824ZM225.943 180.594C225.822 181.199 225.762 181.845 225.762 182.531C225.762 183.217 225.802 184.105 225.883 185.195C226.085 188.263 227.033 190.846 228.729 192.945C230.424 195.004 232.745 196.033 235.691 196.033C237.71 196.033 239.445 195.65 240.898 194.883C242.392 194.076 243.623 193.087 244.592 191.916L245.439 192.461C244.309 194.479 242.775 196.174 240.838 197.547C238.941 198.879 236.801 199.545 234.42 199.545C232.684 199.545 231.07 199.182 229.576 198.455C228.123 197.729 226.852 196.719 225.762 195.428C224.672 194.136 223.804 192.622 223.158 190.887C222.553 189.151 222.25 187.254 222.25 185.195C222.25 182.652 222.573 180.372 223.219 178.354C223.865 176.335 224.732 174.64 225.822 173.268C226.952 171.855 228.264 170.785 229.758 170.059C231.292 169.332 232.926 168.969 234.662 168.969C235.873 168.969 237.084 169.171 238.295 169.574C239.506 169.978 240.596 170.583 241.564 171.391C242.533 172.238 243.32 173.308 243.926 174.6C244.531 175.851 244.854 177.344 244.895 179.08C244.895 179.564 244.834 179.928 244.713 180.17C244.592 180.372 244.289 180.513 243.805 180.594H225.943ZM238.9 178.656C239.627 178.656 240.152 178.555 240.475 178.354C240.798 178.111 240.959 177.688 240.959 177.082C240.959 176.436 240.798 175.75 240.475 175.023C240.192 174.297 239.788 173.631 239.264 173.025C238.699 172.42 238.012 171.915 237.205 171.512C236.398 171.108 235.469 170.906 234.42 170.906C232.119 170.906 230.262 171.633 228.85 173.086C227.477 174.499 226.569 176.355 226.125 178.656H238.9ZM255.309 201.059C254.219 201.059 253.331 200.715 252.645 200.029C251.958 199.343 251.615 198.475 251.615 197.426C251.615 196.417 251.958 195.569 252.645 194.883C253.331 194.156 254.219 193.793 255.309 193.793C256.398 193.793 257.307 194.156 258.033 194.883C258.76 195.569 259.123 196.417 259.123 197.426C259.123 198.475 258.76 199.343 258.033 200.029C257.307 200.715 256.398 201.059 255.309 201.059Z" fill="black"/>
</svg>
